<?xml version="1.0" standalone="no"?>
<!DOCTYPE svg PUBLIC "-//W3C//DTD SVG 20010904//EN"
 "http://www.w3.org/TR/2001/REC-SVG-20010904/DTD/svg10.dtd">
<svg version="1.0" xmlns="http://www.w3.org/2000/svg"
 width="512.000000pt" height="683.000000pt" viewBox="0 0 512.000000 683.000000"
 preserveAspectRatio="xMidYMid meet">

<g transform="translate(0.000000,683.000000) scale(0.100000,-0.100000)"
fill="#000000" stroke="none">
<path d="M0 3415 l0 -3415 2560 0 2560 0 0 3415 0 3415 -2560 0 -2560 0 0
-3415z m2015 2809 c9 -15 12 -23 6 -20 -11 7 -35 46 -28 46 3 0 12 -12 22 -26z
m721 -55 c90 -12 286 -69 291 -84 2 -6 -4 -20 -12 -30 -12 -17 -14 -17 -9 -2
3 9 3 17 0 17 -4 0 -12 -13 -17 -29 -6 -15 -20 -33 -33 -39 -15 -7 -27 -24
-33 -49 -10 -37 -10 -38 -21 -13 l-10 25 -10 -27 c-15 -36 -31 -43 -40 -18 -7
20 -9 20 -21 6 -17 -20 -31 -21 -31 -2 0 13 -4 13 -27 0 -33 -17 -57 -18 -47
-3 3 6 -8 4 -24 -5 -44 -23 -55 -21 -41 7 10 19 10 20 -2 11 -23 -18 -69 -26
-69 -12 0 9 -3 9 -12 0 -10 -10 -15 -7 -25 10 -10 19 -12 20 -13 5 0 -10 -4
-15 -10 -12 -5 3 -19 1 -30 -5 -16 -9 -22 -8 -26 5 -8 20 -24 19 -24 -1 0 -10
-6 -14 -14 -11 -7 3 -18 1 -24 -5 -8 -8 -15 -8 -24 -1 -18 14 -48 12 -48 -4 0
-31 -56 -4 -72 35 l-11 27 -7 -30 -6 -30 -32 49 c-22 34 -32 44 -32 30 -1 -15
-60 97 -60 113 0 11 180 60 265 73 78 12 275 11 361 -1z m344 -18 c-5 -11 -15
-23 -21 -27 -6 -3 -3 5 6 20 20 30 30 35 15 7z m-1309 -37 c-5 -16 -10 -21
-10 -12 -1 18 10 51 15 45 2 -1 -1 -16 -5 -33z m-19 -61 c-3 -16 -7 -22 -10
-15 -4 13 4 42 11 42 2 0 2 -12 -1 -27z m1708 -54 c22 -14 23 -18 11 -33 -12
-15 -12 -19 3 -34 14 -14 20 -15 37 -4 11 7 24 10 30 7 14 -9 1 -25 -22 -25
-11 0 -17 -4 -14 -10 3 -5 15 -10 26 -10 11 0 37 -9 57 -20 20 -10 45 -21 55
-24 9 -3 17 -14 17 -25 0 -10 28 -46 62 -79 l61 -59 -46 -58 c-26 -31 -47 -61
-47 -65 0 -5 -21 -35 -47 -67 -74 -90 -75 -91 -68 -103 9 -14 45 6 45 25 0 8
15 25 33 37 19 12 38 31 43 42 5 12 29 27 54 36 35 12 47 22 54 45 5 17 14 41
20 54 l11 23 40 -44 c22 -25 46 -57 54 -72 14 -26 13 -28 -31 -71 -25 -24 -59
-70 -74 -101 -16 -32 -51 -85 -78 -118 l-49 -59 40 23 c23 12 50 32 61 44 74
77 121 137 137 174 10 23 21 42 25 42 4 0 24 -34 45 -75 l37 -75 -36 -47 c-20
-26 -42 -64 -48 -85 -6 -22 -23 -49 -37 -61 -15 -12 -40 -42 -56 -67 -26 -38
-39 -47 -90 -63 -61 -18 -152 -16 -140 4 9 13 -9 11 -24 -3 -11 -10 -13 -10
-7 0 4 6 2 12 -4 12 -6 0 -8 5 -4 12 5 8 2 9 -11 4 -18 -7 -18 -6 0 14 18 19
18 20 0 20 -18 0 -18 1 1 15 10 8 14 15 7 15 -7 0 -10 7 -7 15 5 11 2 13 -12
8 -13 -5 -15 -3 -9 7 6 10 4 12 -11 6 -12 -5 -7 5 15 28 35 37 35 44 0 26 -23
-13 -24 -7 -3 25 17 25 7 34 -13 14 -9 -9 -10 -6 -6 11 4 15 2 21 -5 16 -7 -4
-8 4 0 30 6 24 6 40 0 46 -6 6 -8 27 -6 47 4 29 3 33 -6 19 -6 -10 -16 -18
-22 -18 -7 0 -7 4 -1 13 5 6 10 41 11 77 2 59 1 63 -13 46 -17 -23 -18 -13 -6
52 8 39 0 57 -13 30 -4 -7 -4 10 -1 37 4 37 2 46 -6 35 -8 -11 -9 -6 -7 23 3
24 0 36 -7 34 -6 -3 -11 12 -11 37 -3 90 -6 107 -21 95 -11 -9 -12 -5 -7 22 3
19 10 47 15 63 12 38 11 55 -2 34 -13 -24 -29 -23 -29 1 0 10 -7 35 -15 54
-20 49 -19 50 13 19 15 -15 38 -34 52 -43z m-1880 31 c26 -26 25 -51 -1 -84
-25 -32 -73 -36 -89 -7 -39 73 34 147 90 91z m125 -94 c-5 -28 -11 -43 -18
-39 -6 4 -8 -4 -4 -23 5 -27 4 -28 -10 -9 -14 18 -15 16 -11 -33 5 -49 -4 -77
-15 -50 -3 7 -6 -5 -6 -26 -1 -38 -2 -39 -17 -20 -15 18 -15 18 -9 -6 8 -29 9
-45 4 -122 -3 -48 -5 -55 -18 -45 -11 9 -10 5 2 -20 22 -41 21 -54 0 -46 -16
6 -16 5 -4 -10 10 -13 10 -17 1 -17 -7 0 -10 -7 -6 -15 4 -10 -1 -15 -14 -15
-17 0 -18 -3 -9 -27 6 -16 12 -40 14 -56 4 -24 2 -26 -15 -17 -15 8 -19 7 -16
-2 3 -7 7 -25 10 -40 6 -26 5 -27 -20 -18 -38 15 -39 13 -4 -26 29 -34 50 -73
50 -94 0 -6 -11 -5 -26 0 -33 13 -37 13 -28 -2 4 -6 8 -23 9 -38 2 -22 -5 -31
-40 -50 -40 -22 -47 -23 -110 -12 -78 13 -129 47 -101 68 9 6 16 17 16 23 0 7
4 10 9 7 10 -7 96 83 87 91 -3 3 -21 -4 -40 -16 l-35 -22 -13 20 c-17 27 -24
26 -32 -3 -3 -13 -20 -37 -38 -52 -18 -16 -35 -33 -37 -39 -15 -41 -23 -54
-55 -84 -21 -21 -36 -44 -36 -58 0 -29 -27 -83 -40 -83 -6 0 -10 -12 -10 -28
0 -38 -49 -109 -62 -91 -7 11 -8 9 -4 -4 11 -33 -43 -132 -61 -113 -8 8 19
156 28 150 4 -2 5 14 2 35 -8 55 31 197 66 241 35 45 50 70 30 53 -7 -7 -16
-13 -20 -13 -9 0 22 85 60 165 16 33 40 85 54 115 85 182 256 379 431 496 61
40 112 72 114 70 2 -2 0 -25 -3 -50z m-523 -258 c30 -24 31 -56 4 -83 -38 -38
-86 -15 -86 41 0 47 46 70 82 42z m409 -385 c13 -16 12 -17 -3 -4 -10 7 -18
15 -18 17 0 8 8 3 21 -13z m2540 -183 c43 -122 64 -239 75 -410 l6 -106 -38
-33 c-20 -18 -52 -40 -70 -47 -47 -20 -177 -18 -220 2 -51 24 -48 29 18 30 32
1 65 7 71 13 9 9 8 11 -4 6 -21 -8 -185 65 -169 75 16 10 -36 50 -64 50 -17 0
-13 5 17 22 44 26 47 36 10 40 -25 3 -21 5 25 23 54 20 89 52 142 130 14 20
35 49 48 65 47 59 19 38 -39 -30 -69 -80 -84 -90 -131 -90 -32 0 -136 28 -110
29 22 1 2 21 -21 21 -25 0 116 89 171 108 49 17 92 51 92 72 0 11 18 34 40 51
22 18 40 41 40 51 0 10 9 37 21 60 l21 40 15 -28 c8 -16 32 -81 54 -144z
m-2561 9 c0 -6 -4 -7 -10 -4 -5 3 -10 11 -10 16 0 6 5 7 10 4 6 -3 10 -11 10
-16z m-270 -43 c24 -21 64 -42 109 -56 39 -13 71 -27 71 -31 0 -5 10 -9 22 -9
21 0 21 0 2 -15 -14 -11 -16 -15 -4 -15 10 0 6 -8 -12 -25 -27 -23 -27 -24 -5
-28 18 -4 17 -5 -6 -6 -18 -1 -26 -5 -21 -12 4 -8 -8 -10 -40 -7 -47 3 -47 3
-26 -14 22 -18 22 -18 -21 -18 -94 0 -154 33 -166 90 -3 17 -10 30 -14 30 -5
0 -6 -12 -3 -27 24 -98 90 -144 211 -147 l74 -1 -28 -22 c-15 -13 -36 -23 -45
-23 -10 0 -18 -5 -18 -10 0 -7 15 -9 38 -5 l37 5 -42 -20 c-33 -16 -47 -18
-70 -10 -26 9 -27 9 -9 -5 11 -8 27 -15 35 -15 36 -1 -15 -20 -54 -21 l-40 -1
35 -8 c19 -5 49 -6 65 -3 l30 5 -35 -27 c-28 -22 -30 -26 -12 -22 51 12 5 -37
-55 -59 -54 -19 -103 -17 -137 5 -17 11 -34 18 -38 15 -5 -3 -8 -2 -7 3 3 20
-2 34 -10 28 -15 -9 -31 30 -31 75 0 33 -4 43 -19 47 -30 8 -31 38 -3 77 29
42 39 45 45 14 3 -13 3 -4 2 19 -1 24 5 59 16 83 11 23 19 48 19 56 0 7 13 20
30 29 16 8 39 25 50 37 11 12 20 16 20 10 0 -7 4 -12 10 -12 6 0 6 10 -1 27
-10 26 -6 53 7 53 4 0 23 -15 44 -34z m2167 -242 c-3 -3 -12 -4 -19 -1 -8 3
-5 6 6 6 11 1 17 -2 13 -5z m737 -336 c-11 -161 -64 -338 -128 -432 -15 -22
-31 -59 -37 -82 -10 -40 -13 -42 -55 -49 -38 -5 -49 -2 -88 25 -61 41 -63 48
-12 43 26 -3 46 -1 50 6 5 7 -1 11 -14 11 -31 0 -70 23 -114 69 l-40 41 35
-12 c19 -6 42 -15 52 -20 17 -8 18 -6 12 24 -4 18 -15 44 -24 58 -14 22 -14
24 0 13 9 -7 24 -32 34 -55 22 -50 53 -88 72 -88 17 0 17 6 -7 38 -10 15 -22
41 -25 57 -6 29 -6 29 9 11 9 -11 16 -26 16 -33 0 -7 5 -13 10 -13 24 0 1 91
-32 128 l-23 25 25 -17 c14 -9 42 -21 62 -27 31 -8 44 -6 75 10 57 30 87 56
34 31 -57 -28 -99 -20 -152 27 -22 20 -38 38 -35 40 2 2 22 -6 45 -18 68 -35
159 -10 192 54 9 17 4 15 -22 -9 -62 -57 -114 -50 -194 24 -26 24 -45 45 -43
46 15 10 149 46 169 46 27 0 87 39 128 84 14 14 26 26 28 26 2 0 1 -37 -3 -82z
m-2993 -14 l44 -14 -45 4 c-45 5 -45 5 -15 -9 l30 -13 -37 -16 c-56 -24 -112
-21 -145 8 -32 28 -26 45 9 23 37 -24 68 -6 68 39 l0 37 24 -22 c13 -12 43
-29 67 -37z m-121 -99 c27 -13 29 -15 8 -11 -14 3 -34 9 -45 12 -13 4 -12 1 6
-14 21 -17 22 -21 8 -28 -9 -5 -38 -37 -65 -71 -58 -72 -62 -69 -62 57 0 93 6
115 33 128 19 8 27 5 52 -24 17 -18 46 -41 65 -49z m1940 6 c0 -20 -66 -71
-92 -71 -23 0 -34 20 -17 31 8 5 24 9 37 9 15 0 21 4 16 12 -8 12 21 38 43 38
7 0 13 -8 13 -19z m-890 -12 c0 -6 9 -8 22 -4 16 6 20 4 15 -9 -7 -17 8 -32
18 -17 3 6 12 8 21 4 11 -4 12 -9 3 -19 -17 -21 -44 -17 -78 12 -34 28 -39 44
-16 44 8 0 15 -5 15 -11z m1402 0 c17 -9 18 -13 7 -20 -8 -5 -25 -9 -39 -9
-48 -1 2 -20 55 -21 28 0 61 -4 75 -8 24 -7 23 -8 -15 -21 -38 -13 -39 -14
-15 -21 14 -4 48 -8 75 -8 l50 -2 -40 -14 c-22 -8 -62 -15 -88 -15 -30 0 -46
-4 -42 -10 3 -5 19 -10 36 -10 19 0 29 -5 29 -15 0 -8 6 -15 13 -16 6 0 -17
-12 -53 -25 -35 -14 -73 -23 -83 -20 -18 4 -18 4 -2 -14 16 -18 15 -19 -12
-22 l-28 -3 40 -22 40 -22 -30 -2 c-29 -1 -29 -1 -6 -8 23 -6 22 -8 -16 -19
-22 -7 -55 -12 -72 -12 -19 0 -30 -4 -26 -10 3 -5 -4 -10 -17 -11 -13 0 4 -9
37 -19 l60 -19 -73 2 c-81 2 -96 -8 -24 -18 59 -8 74 -13 43 -14 -13 -1 -21
-4 -18 -8 9 -8 -39 -33 -67 -34 -19 -1 -18 -2 4 -8 22 -7 20 -9 -20 -15 -25
-4 -58 -2 -75 3 -28 9 -26 10 15 7 25 -2 37 -1 27 1 -9 2 -15 9 -12 14 4 5 -7
9 -24 9 -33 0 -51 17 -27 26 12 5 13 9 3 25 -10 16 -9 22 3 32 9 7 14 20 12
30 -4 18 -3 18 25 1 l28 -18 -28 27 c-24 24 -27 32 -21 64 8 42 12 42 -49 -7
-10 -8 -27 -32 -38 -52 -11 -21 -22 -38 -25 -38 -3 0 -2 5 2 12 4 7 3 8 -4 4
-6 -4 -8 -14 -5 -23 5 -12 3 -14 -7 -8 -9 5 -11 4 -6 -3 4 -6 0 -24 -8 -39
-11 -21 -16 -24 -17 -10 -1 9 -3 22 -4 27 -1 6 -3 16 -4 23 -1 6 -9 -1 -18
-18 -22 -40 -62 -234 -49 -238 15 -5 -2 -26 -46 -53 -54 -35 -40 -43 17 -10
43 25 62 23 30 -4 -8 -7 -15 -18 -15 -24 0 -6 -20 -31 -45 -56 -24 -25 -72
-80 -105 -123 -33 -43 -65 -75 -71 -71 -5 3 -18 0 -27 -7 -15 -12 -15 -12 1 7
32 38 13 63 -21 26 -10 -10 -16 -16 -15 -14 1 3 -5 11 -13 19 -13 14 -13 17 1
32 8 10 15 26 15 37 0 11 5 25 12 32 13 13 -6 92 -25 104 -7 4 -6 16 2 37 20
47 97 160 124 181 14 11 28 32 32 47 15 60 58 135 89 154 44 27 69 25 62 -3
-3 -13 -3 -17 0 -10 3 7 28 24 54 37 32 16 63 45 94 85 25 33 46 64 46 69 0 6
10 13 23 17 21 7 21 7 2 14 -18 6 -17 8 8 25 16 10 26 24 23 31 -6 16 30 44
56 44 10 0 38 -18 62 -40 24 -22 46 -40 50 -40 3 0 -8 13 -26 29 -39 34 -33
48 14 32 28 -9 30 -9 16 2 -15 12 -13 16 25 40 46 30 50 31 79 16z m-2440 -80
c-45 -33 -55 -47 -21 -28 15 8 19 8 15 0 -8 -12 -49 -35 -91 -51 l-26 -10 18
31 c23 41 89 89 121 89 24 0 23 -2 -16 -31z m-66 -115 c-18 -17 -71 -35 -80
-26 -13 13 29 42 61 42 31 0 33 -1 19 -16z m117 -25 c-9 -17 -13 -46 -11 -66
3 -23 -4 -56 -19 -92 -12 -31 -23 -75 -23 -98 0 -29 -7 -50 -24 -70 l-24 -27
-26 88 c-15 49 -25 95 -22 103 3 8 2 11 -4 8 -5 -3 -12 11 -15 32 -4 21 -9 46
-11 55 -4 13 7 20 46 32 28 8 63 24 78 34 26 18 49 29 64 31 3 1 0 -13 -9 -30z
m40 -34 c-15 -19 -29 -32 -32 -29 -4 4 48 64 56 64 2 0 -9 -16 -24 -35z m2937
-64 c0 -35 -50 -111 -73 -111 -5 0 -7 14 -3 32 9 44 76 113 76 79z m-2885 -53
c-46 -54 -78 -136 -79 -200 -1 -40 -5 -58 -14 -58 -16 0 -4 -24 49 -93 43 -58
48 -88 24 -152 -13 -34 -15 -35 -11 -10 2 17 7 41 11 55 6 22 5 23 -7 8 -13
-15 -15 -15 -28 5 -27 41 -60 107 -55 107 3 0 -1 13 -9 28 -8 15 -14 35 -14
42 2 32 -2 50 -12 50 -5 0 -9 -3 -7 -7 1 -5 -2 -9 -8 -11 -5 -1 -11 7 -11 18
-1 14 3 19 13 16 8 -3 11 -1 8 4 -3 5 -1 19 5 31 11 20 12 20 31 3 22 -19 25
-13 7 15 -10 16 -7 25 20 55 18 20 32 44 32 53 0 17 69 87 77 79 3 -3 -7 -20
-22 -38z m85 -38 c-11 -20 -10 -21 9 -10 12 6 21 15 21 21 0 6 5 7 10 4 6 -3
10 -17 10 -30 0 -13 7 -28 15 -33 13 -7 11 -13 -15 -41 -16 -19 -27 -38 -24
-43 3 -5 0 -7 -7 -6 -7 2 -17 -14 -24 -35 -6 -21 -14 -35 -17 -32 -10 10 -55
-24 -76 -57 l-19 -30 -17 32 c-9 18 -16 42 -16 53 0 34 31 85 81 134 31 30 54
63 62 88 7 23 13 33 15 23 2 -9 -2 -27 -8 -38z m-194 -27 c-11 -21 -15 -23
-16 -10 0 24 22 65 27 50 2 -6 -3 -24 -11 -40z m2692 3 c13 -22 17 -38 10 -47
-7 -12 -8 -11 -6 1 1 8 -6 30 -15 48 -23 42 -15 41 11 -2z m-51 -68 c-3 -7 -5
-2 -5 12 0 14 2 19 5 13 2 -7 2 -19 0 -25z m342 -47 c-25 -36 -35 -45 -40 -33
-5 14 -6 14 -12 -1 -3 -9 -4 -24 -1 -32 6 -15 -3 -19 -43 -15 -14 1 -23 -4
-23 -13 0 -10 -8 -13 -23 -10 -15 3 -24 0 -24 -9 -2 -51 -37 -123 -54 -112 -5
3 -9 -2 -9 -10 0 -8 -3 -17 -7 -19 -5 -3 -8 16 -8 41 0 26 -3 72 -7 102 -3 30
-3 46 1 35 5 -11 12 -20 17 -20 5 0 16 -4 24 -10 13 -8 13 -7 0 10 -13 16 -13
19 4 29 11 6 36 27 55 46 43 42 78 70 68 54 -16 -27 27 -22 61 6 52 43 63 23
21 -39z m-272 27 c-3 -8 -6 -5 -6 6 -1 11 2 17 5 13 3 -3 4 -12 1 -19z m-580
-40 c-21 -7 -32 -7 -40 1 -8 8 0 11 29 10 39 -1 39 -1 11 -11z m-1920 -80 c-2
-18 -4 -6 -4 27 0 33 2 48 4 33 2 -15 2 -42 0 -60z m-237 12 c0 -5 -5 -10 -11
-10 -5 0 -7 5 -4 10 3 6 8 10 11 10 2 0 4 -4 4 -10z m2118 3 c-10 -2 -26 -2
-35 0 -10 3 -2 5 17 5 19 0 27 -2 18 -5z m-1927 -30 c-12 -20 -14 -14 -5 12 4
9 9 14 11 11 3 -2 0 -13 -6 -23z m2799 -8 c0 -14 -4 -24 -9 -22 -5 1 -21 -15
-35 -36 -23 -34 -24 -38 -9 -44 9 -4 31 -7 49 -7 27 -1 31 -4 23 -18 -6 -10
-15 -18 -21 -18 -6 0 -9 -3 -5 -6 3 -3 -9 -19 -26 -36 l-32 -30 29 17 c30 18
30 14 -7 -39 l-20 -29 -19 34 -18 34 6 -30 c4 -16 11 -35 16 -41 5 -7 2 -16
-8 -25 -20 -16 -58 -20 -44 -4 5 6 5 17 0 24 -4 8 -6 20 -3 28 3 9 0 11 -10 8
-9 -4 -16 2 -20 15 -3 12 -9 20 -14 17 -5 -3 -8 17 -8 43 0 40 5 54 29 79 17
17 34 31 39 31 5 0 29 18 54 40 53 47 63 49 63 15z m-117 -10 c4 -8 3 -16 -1
-19 -4 -3 -9 4 -9 15 -2 23 3 25 10 4z m-2666 -62 c-3 -10 -5 -2 -5 17 0 19 2
27 5 18 2 -10 2 -26 0 -35z m40 25 c-3 -8 -6 -5 -6 6 -1 11 2 17 5 13 3 -3 4
-12 1 -19z m2323 9 c0 -2 -15 -16 -32 -33 l-33 -29 29 33 c28 30 36 37 36 29z
m-2423 -49 c-3 -8 -6 -5 -6 6 -1 11 2 17 5 13 3 -3 4 -12 1 -19z m26 -83 l6
-30 -14 30 c-8 17 -14 39 -14 50 l0 20 8 -20 c4 -11 11 -33 14 -50z m1402 25
c3 -6 -1 -7 -9 -4 -18 7 -21 14 -7 14 6 0 13 -4 16 -10z m-1549 -85 c-22 -33
-21 -40 19 -123 40 -84 38 -94 -4 -21 l-29 50 -6 -53 c-4 -30 -3 -66 3 -81 11
-30 -1 -44 -19 -23 -8 11 -9 29 -1 72 6 32 11 81 11 109 0 30 6 60 16 73 21
30 30 28 10 -3z m2778 -119 c-6 -15 -34 -31 -34 -19 0 5 30 32 37 33 1 0 0 -6
-3 -14z m75 -12 c12 -15 21 -32 20 -38 0 -6 -3 -5 -6 3 -4 10 -9 8 -20 -10
-14 -24 -14 -24 -8 -1 4 14 0 33 -9 47 -22 33 -3 32 23 -1z m67 -77 c-8 -7
-16 -30 -18 -52 -3 -39 -4 -39 -8 11 -4 39 -2 50 8 47 6 -3 12 0 12 7 0 6 5 8
11 5 7 -5 5 -11 -5 -18z m119 -97 c29 -10 29 -10 3 -6 -23 3 -28 -1 -29 -18
-1 -15 -3 -12 -10 11 -5 17 -20 40 -32 50 -13 10 -26 27 -30 38 -4 11 10 1 30
-23 21 -23 52 -47 68 -52z m-250 15 c-38 -56 -62 -78 -29 -27 9 15 27 41 38
59 11 17 23 30 25 27 2 -2 -13 -29 -34 -59z m-2808 -47 c-2 -13 -4 -5 -4 17
-1 22 1 32 4 23 2 -10 2 -28 0 -40z m-65 -18 c-5 -32 -22 -52 -22 -25 0 15 17
55 24 55 1 0 1 -14 -2 -30z m-69 -59 c-18 -15 -34 -36 -34 -47 -1 -18 -2 -18
-6 -1 -5 20 42 77 61 77 6 -1 -4 -13 -21 -29z m3207 25 c0 -2 -8 -10 -17 -17
-16 -13 -17 -12 -4 4 13 16 21 21 21 13z m64 -118 c-3 -4 -12 -1 -21 7 -14 14
-19 12 -50 -22 -23 -25 -28 -28 -13 -8 13 18 19 37 15 52 l-5 22 40 -21 c21
-12 37 -25 34 -30z m-3334 8 c0 -2 -18 -19 -40 -36 -22 -17 -40 -28 -40 -23 1
4 17 20 37 36 36 27 43 31 43 23z m3417 -86 c55 -35 50 -39 -10 -8 -23 12 -45
21 -49 20 -5 -1 -8 3 -8 8 0 17 17 12 67 -20z m36 -65 c-3 -9 -8 -14 -10 -11
-3 3 -2 9 2 15 9 16 15 13 8 -4z m7 -115 c0 -5 -13 -3 -30 3 -16 6 -30 15 -30
19 0 4 14 2 30 -3 17 -6 30 -15 30 -19z m-430 -44 c0 -2 -7 -7 -16 -10 -8 -3
-12 -2 -9 4 6 10 25 14 25 6z m275 -26 c3 -6 -1 -7 -9 -4 -18 7 -21 14 -7 14
6 0 13 -4 16 -10z m-3127 -77 c-9 -10 -18 -25 -21 -33 -4 -10 -6 -8 -6 7 -1
12 7 27 17 32 25 15 27 13 10 -6z m-100 -69 c-19 -20 -42 -34 -49 -32 -7 2 6
17 32 35 58 41 61 40 17 -3z m-71 -56 c-3 -8 -6 -5 -6 6 -1 11 2 17 5 13 3 -3
4 -12 1 -19z m-17 -24 c0 -8 -4 -12 -10 -9 -5 3 -10 10 -10 16 0 5 5 9 10 9 6
0 10 -7 10 -16z m3010 2 c0 -2 -7 -7 -16 -10 -8 -3 -12 -2 -9 4 6 10 25 14 25
6z m-3096 -31 c-10 -8 -23 -14 -29 -14 -5 0 -1 6 9 14 11 8 24 15 30 15 5 0 1
-7 -10 -15z m-47 -52 c-3 -10 -5 -4 -5 12 0 17 2 24 5 18 2 -7 2 -21 0 -30z
m2838 27 c3 -5 -1 -10 -10 -10 -9 0 -13 5 -10 10 3 6 8 10 10 10 2 0 7 -4 10
-10z m-165 -95 c-14 -8 -29 -14 -35 -14 -5 0 1 6 15 14 14 8 30 14 35 14 6 0
-1 -6 -15 -14z m-150 -300 c7 -9 8 -15 2 -15 -5 0 -12 7 -16 15 -3 8 -4 15 -2
15 2 0 9 -7 16 -15z m-441 -188 c-2 -1 -13 -9 -24 -17 -19 -14 -19 -14 -6 3 7
9 18 17 24 17 6 0 8 -1 6 -3z"/>
<path d="M2583 6129 c-11 -19 -24 -58 -27 -88 -6 -49 -5 -53 8 -41 9 7 16 24
16 38 0 14 9 35 20 47 15 16 18 27 12 50 l-8 29 -21 -35z"/>
<path d="M2191 6064 c0 -11 3 -14 6 -6 3 7 2 16 -1 19 -3 4 -6 -2 -5 -13z"/>
<path d="M3683 5698 c2 -7 10 -13 17 -13 7 0 15 6 18 13 2 7 -5 12 -18 12 -13
0 -20 -5 -17 -12z"/>
<path d="M3626 5391 c-16 -17 -13 -51 5 -51 11 0 29 34 29 54 0 21 -13 20 -34
-3z"/>
<path d="M3970 5355 c-7 -8 -22 -15 -35 -15 -13 0 -39 -19 -67 -47 -52 -56
-96 -93 -109 -93 -5 0 -9 -5 -9 -11 0 -5 4 -8 9 -5 5 3 1 -17 -10 -44 -10 -28
-15 -50 -10 -50 6 0 12 4 15 9 3 4 20 11 38 15 44 9 118 82 118 116 0 19 8 30
25 38 14 7 31 24 37 39 7 16 18 36 26 46 13 15 13 17 0 17 -9 0 -21 -7 -28
-15z"/>
<path d="M3643 5285 c-16 -11 -22 -12 -26 -2 -2 6 -8 0 -12 -15 -9 -37 -1 -56
30 -70 22 -10 30 -8 53 9 63 47 20 123 -45 78z"/>
<path d="M3575 5140 c-3 -5 -1 -10 4 -10 6 0 11 5 11 10 0 6 -2 10 -4 10 -3 0
-8 -4 -11 -10z"/>
<path d="M1560 5829 c-10 -17 -9 -24 4 -37 12 -13 18 -13 31 -2 20 17 16 54
-7 58 -9 2 -22 -6 -28 -19z"/>
<path d="M1460 5755 c-9 -10 -9 -19 -2 -27 5 -7 11 -22 13 -32 4 -18 6 -17 22
7 30 46 0 92 -33 52z"/>
<path d="M1463 5593 c-7 -3 -13 -16 -13 -30 0 -18 5 -24 17 -21 19 4 30 35 16
48 -4 4 -14 5 -20 3z"/>
<path d="M1401 5477 c-11 -15 -6 -47 9 -47 4 0 13 7 20 16 11 12 11 18 -2 30
-13 13 -16 13 -27 1z"/>
<path d="M1261 5460 c15 -32 49 -75 49 -64 1 5 9 -7 18 -26 21 -43 35 -42 45
6 9 44 3 54 -20 31 -16 -16 -20 -14 -61 31 -27 30 -39 38 -31 22z"/>
<path d="M1415 5389 c-10 -15 3 -25 16 -12 7 7 7 13 1 17 -6 3 -14 1 -17 -5z"/>
<path d="M1176 5381 c-4 -7 -5 -15 -2 -18 9 -9 19 4 14 18 -4 11 -6 11 -12 0z"/>
<path d="M1490 5270 c0 -5 5 -10 11 -10 5 0 7 5 4 10 -3 6 -8 10 -11 10 -2 0
-4 -4 -4 -10z"/>
<path d="M3840 4975 c0 -8 7 -15 15 -15 8 0 15 7 15 15 0 8 -7 15 -15 15 -8 0
-15 -7 -15 -15z"/>
<path d="M4055 4945 c-37 -37 -44 -55 -22 -55 17 0 37 21 37 39 0 8 7 23 17
33 29 32 5 19 -32 -17z"/>
<path d="M4110 4901 c0 -6 4 -12 8 -15 5 -3 9 1 9 9 0 8 -4 15 -9 15 -4 0 -8
-4 -8 -9z"/>
<path d="M4117 4812 c-34 -37 -43 -106 -18 -136 26 -31 33 -17 26 53 -6 57 -4
69 9 74 17 7 22 27 8 27 -5 0 -16 -8 -25 -18z"/>
<path d="M3865 4800 c-22 -24 -11 -53 22 -58 28 -4 60 34 47 56 -16 25 -47 26
-69 2z"/>
<path d="M1270 4880 c6 -11 13 -20 16 -20 2 0 0 9 -6 20 -6 11 -13 20 -16 20
-2 0 0 -9 6 -20z"/>
<path d="M3340 4116 c0 -2 8 -10 18 -17 15 -13 16 -12 3 4 -13 16 -21 21 -21
13z"/>
<path d="M3285 3960 c10 -11 20 -20 23 -20 3 0 -3 9 -13 20 -10 11 -20 20 -23
20 -3 0 3 -9 13 -20z"/>
<path d="M3305 3910 c11 -5 29 -8 40 -8 16 0 15 2 -5 8 -34 11 -60 11 -35 0z"/>
<path d="M2893 3748 c-16 -18 -33 -42 -37 -52 -7 -19 -6 -19 14 -1 11 10 20
23 20 28 0 6 10 21 22 34 12 13 19 23 17 23 -3 0 -19 -15 -36 -32z"/>
<path d="M2929 3689 l-24 -20 28 17 c15 9 27 18 27 20 0 8 -8 4 -31 -17z"/>
<path d="M2908 3603 c-25 -30 -33 -47 -17 -37 8 5 17 9 21 9 3 0 10 4 15 9 5
5 3 6 -4 2 -16 -9 -17 6 -1 22 7 7 10 12 7 12 -3 0 -13 -8 -21 -17z"/>
<path d="M2954 3604 c-18 -14 -18 -14 6 -3 31 14 36 19 24 19 -6 0 -19 -7 -30
-16z"/>
<path d="M2839 3488 c-12 -23 -12 -23 10 -4 23 21 26 26 11 26 -5 0 -15 -10
-21 -22z"/>
<path d="M1296 3911 c-3 -5 1 -11 9 -14 9 -4 12 -1 8 9 -6 16 -10 17 -17 5z"/>
<path d="M4029 3817 c-11 -8 -14 -18 -8 -32 4 -11 8 -14 10 -7 3 24 4 27 12
40 10 15 7 15 -14 -1z"/>
<path d="M3920 3691 c0 -6 -7 -11 -15 -11 -19 0 -19 -16 0 -24 18 -6 41 29 25
39 -5 3 -10 1 -10 -4z"/>
<path d="M4017 3665 c-8 -18 11 -31 25 -17 11 11 3 32 -12 32 -4 0 -10 -7 -13
-15z"/>
<path d="M3931 3564 c0 -11 3 -14 6 -6 3 7 2 16 -1 19 -3 4 -6 -2 -5 -13z"/>
<path d="M3987 3573 c8 -3 11 -14 7 -27 -4 -18 -1 -25 15 -29 12 -3 21 -1 21
4 0 5 -8 9 -17 9 -15 0 -15 2 2 14 18 13 18 14 -3 25 -11 6 -24 11 -29 10 -4
0 -2 -3 4 -6z"/>
<path d="M3942 3518 c3 -7 15 -14 29 -15 14 -1 17 0 7 3 -10 3 -18 10 -18 15
0 5 -5 9 -11 9 -6 0 -9 -6 -7 -12z"/>
</g>
</svg>
